<svg width="32" height="32" viewBox="0 0 32 32" fill="none" xmlns="http://www.w3.org/2000/svg">
<path d="M9.0002 9.03404C8.17178 9.03404 7.5002 9.70562 7.5002 10.534C7.5002 11.3625 8.17178 12.034 9.0002 12.034V9.03404ZM23.0002 12.034C23.8286 12.034 24.5002 11.3625 24.5002 10.534C24.5002 9.70562 23.8286 9.03404 23.0002 9.03404V12.034ZM10.7502 14.152C9.92178 14.152 9.2502 14.8236 9.2502 15.652C9.2502 16.4804 9.92178 17.152 10.7502 17.152V14.152ZM21.2502 17.152C22.0786 17.152 22.7502 16.4804 22.7502 15.652C22.7502 14.8236 22.0786 14.152 21.2502 14.152V17.152ZM9.3262 2.00004V0.5L9.31526 0.50008L9.3262 2.00004ZM22.6762 2.00004L22.6876 0.50004H22.6762V2.00004ZM30.0002 9.43404L28.5002 9.42302V9.43404H30.0002ZM30.0002 18.46H28.5002V18.471L30.0002 18.46ZM22.6742 25.894V27.394H22.6852L22.6742 25.894ZM9.3262 25.894V24.394C9.06938 24.394 8.81686 24.46 8.59282 24.5856L9.3262 25.894ZM2.0002 30H0.5002C0.5002 30.5324 0.782499 31.025 1.24194 31.2942C1.70136 31.5634 2.26908 31.5688 2.73358 31.3084L2.0002 30ZM2.0002 9.43404H3.50024L3.50016 9.42302L2.0002 9.43404ZM9.0002 12.034H23.0002V9.03404H9.0002V12.034ZM10.7502 17.152H21.2502V14.152H10.7502V17.152ZM9.3262 3.50004H22.6762V0.50004L9.3262 0.5V3.50004ZM22.6648 3.5C25.9118 3.52454 28.524 6.17616 28.5002 9.42302L31.5002 9.44506C31.5362 4.54164 27.591 0.53712 22.6876 0.50004L22.6648 3.5ZM28.5002 9.43404V18.46H31.5002V9.43404H28.5002ZM28.5002 18.471C28.5116 20.0306 27.9032 21.5306 26.8084 22.6414L28.9452 24.7472C30.5984 23.0696 31.5174 20.8042 31.5002 18.449L28.5002 18.471ZM26.8084 22.6414C25.7138 23.7522 24.2228 24.3826 22.6632 24.394L22.6852 27.394C25.0402 27.3768 27.2922 26.4248 28.9452 24.7472L26.8084 22.6414ZM22.6742 24.394H9.3262V27.394H22.6742V24.394ZM8.59282 24.5856L1.26682 28.6916L2.73358 31.3084L10.0596 27.2024L8.59282 24.5856ZM3.5002 30L3.50024 9.43404H0.5002V30H3.5002ZM3.50016 9.42302C3.4887 7.86354 4.09724 6.36338 5.1919 5.25258L3.05512 3.14684C1.40196 4.82436 0.48294 7.08992 0.50024 9.44506L3.50016 9.42302ZM5.1919 5.25258C6.28656 4.1418 7.77764 3.51136 9.33714 3.5L9.31526 0.50008C6.96012 0.51724 4.70826 1.46932 3.05512 3.14684L5.1919 5.25258Z" fill="#739EBE"/>
</svg>
