<svg width="32" height="30" viewBox="0 0 32 30" fill="none" xmlns="http://www.w3.org/2000/svg">
<path d="M28.3334 15H12.5001M25.0001 20L30.0001 15L25.0001 9.99996M16.6667 6.66663V4.99996C16.6667 4.1159 16.3156 3.26806 15.6904 2.64294C15.0653 2.01782 14.2175 1.66663 13.3334 1.66663H5.00008C4.11603 1.66663 3.26818 2.01782 2.64306 2.64294C2.01794 3.26806 1.66675 4.1159 1.66675 4.99996V25C1.66675 25.884 2.01794 26.7319 2.64306 27.357C3.26818 27.9821 4.11603 28.3333 5.00008 28.3333H13.3334C14.2175 28.3333 15.0653 27.9821 15.6904 27.357C16.3156 26.7319 16.6667 25.884 16.6667 25V23.3333" stroke="#739EBE" stroke-width="3" stroke-linecap="round" stroke-linejoin="round"/>
</svg>
