<svg width="40" height="40" viewBox="0 0 40 40" fill="none" xmlns="http://www.w3.org/2000/svg">
<path d="M33.3334 20H17.5001M30.0001 25L35.0001 20L30.0001 15M21.6667 11.6666V9.99996C21.6667 9.1159 21.3156 8.26806 20.6904 7.64294C20.0653 7.01782 19.2175 6.66663 18.3334 6.66663H10.0001C9.11603 6.66663 8.26818 7.01782 7.64306 7.64294C7.01794 8.26806 6.66675 9.1159 6.66675 9.99996V30C6.66675 30.884 7.01794 31.7319 7.64306 32.357C8.26818 32.9821 9.11603 33.3333 10.0001 33.3333H18.3334C19.2175 33.3333 20.0653 32.9821 20.6904 32.357C21.3156 31.7319 21.6667 30.884 21.6667 30V28.3333" stroke="#739EBE" stroke-width="3" stroke-linecap="round" stroke-linejoin="round"/>
</svg>
