<svg width="40" height="40" viewBox="0 0 40 40" fill="none" xmlns="http://www.w3.org/2000/svg">
<path fill-rule="evenodd" clip-rule="evenodd" d="M33 16.9667C32.4833 11.6667 29.35 3.33337 19.6667 3.33337C9.98333 3.33337 6.85 11.6667 6.33333 16.9667C4.52085 17.6546 3.32531 19.3948 3.33329 21.3334V23.6667C3.33329 26.244 5.42267 28.3334 8 28.3334C10.5773 28.3334 12.6667 26.244 12.6667 23.6667V21.3334C12.6583 19.4366 11.5067 17.7322 9.75 17.0167C10.0833 13.95 11.7167 6.66671 19.6667 6.66671C27.6167 6.66671 29.2333 13.95 29.5667 17.0167C27.8136 17.7337 26.6677 19.4393 26.6667 21.3334V23.6667C26.6739 25.4583 27.7027 27.0889 29.3167 27.8667C28.6167 29.1834 26.8333 30.9667 22.45 31.5C21.5738 30.1695 19.8786 29.645 18.4041 30.2482C16.9296 30.8514 16.088 32.4136 16.3955 33.9767C16.703 35.5399 18.0736 36.6667 19.6667 36.6667C20.9256 36.6597 22.0731 35.9441 22.6333 34.8167C29.7833 34 32.0667 30.3167 32.7833 28.15C34.7222 27.522 36.0261 25.7046 36 23.6667V21.3334C36.008 19.3948 34.8125 17.6546 33 16.9667ZM9.33333 23.6667C9.33333 24.4031 8.73638 25 8 25C7.26362 25 6.66667 24.4031 6.66667 23.6667V21.3334C6.66667 20.857 6.9208 20.4168 7.33333 20.1787C7.74587 19.9405 8.25413 19.9405 8.66667 20.1787C9.0792 20.4168 9.33333 20.857 9.33333 21.3334V23.6667ZM30 21.3334C30 20.597 30.597 20 31.3333 20C32.0697 20 32.6667 20.597 32.6667 21.3334V23.6667C32.6667 24.4031 32.0697 25 31.3333 25C30.597 25 30 24.4031 30 23.6667V21.3334Z" fill="#739EBE"/>
</svg>
