<svg width="33" height="34" viewBox="0 0 33 34" fill="none" xmlns="http://www.w3.org/2000/svg">
<path fill-rule="evenodd" clip-rule="evenodd" d="M30 13.9667C29.4833 8.66671 26.35 0.333374 16.6667 0.333374C6.98333 0.333374 3.85 8.66671 3.33333 13.9667C1.52085 14.6546 0.325311 16.3948 0.333292 18.3334V20.6667C0.333292 23.244 2.42267 25.3334 5 25.3334C7.57733 25.3334 9.66667 23.244 9.66667 20.6667V18.3334C9.65829 16.4366 8.50666 14.7322 6.75 14.0167C7.08333 10.95 8.71667 3.66671 16.6667 3.66671C24.6167 3.66671 26.2333 10.95 26.5667 14.0167C24.8136 14.7337 23.6677 16.4393 23.6667 18.3334V20.6667C23.6739 22.4583 24.7027 24.0889 26.3167 24.8667C25.6167 26.1834 23.8333 27.9667 19.45 28.5C18.5738 27.1695 16.8786 26.645 15.4041 27.2482C13.9296 27.8514 13.088 29.4136 13.3955 30.9767C13.703 32.5399 15.0736 33.6667 16.6667 33.6667C17.9256 33.6597 19.0731 32.9441 19.6333 31.8167C26.7833 31 29.0667 27.3167 29.7833 25.15C31.7222 24.522 33.0261 22.7046 33 20.6667V18.3334C33.008 16.3948 31.8125 14.6546 30 13.9667ZM6.33333 20.6667C6.33333 21.4031 5.73638 22 5 22C4.26362 22 3.66667 21.4031 3.66667 20.6667V18.3334C3.66667 17.857 3.9208 17.4168 4.33333 17.1787C4.74587 16.9405 5.25413 16.9405 5.66667 17.1787C6.0792 17.4168 6.33333 17.857 6.33333 18.3334V20.6667ZM27 18.3334C27 17.597 27.597 17 28.3333 17C29.0697 17 29.6667 17.597 29.6667 18.3334V20.6667C29.6667 21.4031 29.0697 22 28.3333 22C27.597 22 27 21.4031 27 20.6667V18.3334Z" fill="#739EBE"/>
</svg>
